<?xml version="1.0" encoding="utf-8"?>
<!-- Generator: Adobe Illustrator 22.1.0, SVG Export Plug-In . SVG Version: 6.00 Build 0)  -->
<svg version="1.1" fill="#ffffff" id="Layer_1" xmlns="http://www.w3.org/2000/svg" xmlns:xlink="http://www.w3.org/1999/xlink" x="0px" y="0px"
	 viewBox="0 0 1920 375" style="enable-background:new 0 0 1920 375; opacity: 0.2;s" xml:space="preserve">
<g>
	<path d="M620,125.8c-8.5-4.5-16.8-9.1-25.4-13.8c-1.4,3.2-2.6,5.5-3.6,7.9c8.2,4.4,16.1,8.7,24.3,13.1
		C616.7,130.7,618.2,128.5,620,125.8z"/>
	<path d="M592.6,267.2c-2.6-2-5-3.7-7.4-5.6c-6.5,7.8-9.5,16.4-9.3,26.6c3.2,0.1,6.3,0.2,9.5,0.3
		C585.2,280.3,587.8,273.4,592.6,267.2z"/>
	<path d="M683.4,337.9c1.5,2.1,3.1,4.4,5.4,7.7c7.4-5.9,14.5-11.5,22-17.2c-3.2-2.6-5.5-4.5-7.4-6
		C696.5,327.8,690,332.7,683.4,337.9z"/>
	<path d="M638.6,242.8c-9.8,0.4-19.3,1.3-28.6,4c1.1,3,2.2,5.7,3,7.8c9-1.2,17.7-2.3,26.5-3.4C639.2,248.5,639,245.8,638.6,242.8z"
		/>
	<path d="M425.3,94.2c0.5,3.2,1,6,1.5,8.8c9.4-0.6,18.6-1.3,27.8-2c-0.5-3-0.8-5.8-1.3-8.8C443.9,92.9,434.6,93.5,425.3,94.2z"/>
	<path d="M482.4,100.1c9.3,0.2,18.4,0.4,27.8,0.7c0.1-2.9,0.1-5.5,0.1-8.9c-9.7-0.2-19-0.4-28.6-0.6
		C481.9,94.6,482.2,97.3,482.4,100.1z"/>
	<path d="M633.1,344.3c-0.5,1.9-1.3,4.4-2.1,7.4c10.1,3.1,19.9,3.8,30.1,2.4c-0.7-3-1.3-5.7-1.8-7.8
		C650.5,345.6,641.8,345,633.1,344.3z"/>
	<path d="M696.2,251.5c-9.7-2.4-19-4.6-28.3-6.8c-0.4,3.4-0.8,6-1,8.7c9.2,2.2,18.1,4.4,27,6.5C694.5,257.2,695.3,254.8,696.2,251.5
		z"/>
	<path d="M314.4,95.8c-0.3,2.9-0.5,5.6-0.7,8.8c9.7,0.8,19,1.6,28.7,2.3c-0.1-3.3-0.2-6-0.3-8.8C332.7,97.3,323.6,96.6,314.4,95.8z"
		/>
	<path d="M717.4,301.8c2.5,1.1,5.1,2.4,8.1,3.6c3.9-8.6,6.3-17,6.6-26.3c-3.2-0.4-6.2-0.7-8.6-1
		C721.4,286.2,719.4,293.9,717.4,301.8z"/>
	<path d="M638.3,149.1c7.4,6,14.5,11.7,21.7,17.5c2-2.1,3.9-3.9,6.2-6.2c-7.7-6.2-14.8-12-22.2-17.9
		C641.7,144.9,640.1,147,638.3,149.1z"/>
	<path d="M705.3,201.6c-6.3-7.3-12.3-14.4-18.4-21.6c-2.7,2.1-4.8,3.9-6.9,5.6c6,7.1,11.8,13.9,17.6,20.8
		C700.1,204.9,702.5,203.4,705.3,201.6z"/>
	<path d="M584.5,315.5c5.1,8.6,11.8,15.5,19.6,22c2-2.2,3.8-4.3,5.4-6c-6-6.7-11.7-13-17.6-19.5C589.8,313,587.3,314.2,584.5,315.5z
		"/>
	<path d="M257.5,89.4c9.4,3.3,18.4,6.4,27.8,9.5c0.7-3.4,1.4-6,2-8.5c-8.9-3.1-17.5-6-26.2-9C260,83.9,258.9,86.3,257.5,89.4z"/>
	<path d="M369.8,97.9c0.4,3.1,0.6,5.9,1,8.9c9.6-0.5,18.8-1,28.2-1.7c-0.5-3.2-0.9-5.9-1.4-8.8C388.2,96.9,379.1,97.4,369.8,97.9z"
		/>
	<path d="M730.6,251.8c-3.4-8.9-6.6-17.5-10-26.3c-3.5,1.3-6,2.4-8.5,3.4c3.1,8.2,6.1,16.2,9.2,24.4
		C724,252.8,726.9,252.3,730.6,251.8z"/>
	<path d="M720.2,269.5c8.9,3.8,17.4,7.3,26.1,11c1.2-2.8,2.2-5.2,3.4-8c-8.9-3.8-17.4-7.4-26.4-11.2
		C722.2,264.3,721.3,266.9,720.2,269.5z"/>
	<path d="M537.8,103.9c9.2,2.1,18.1,4.1,27.2,6.2c0.7-2.7,1.4-5.3,2.2-8.5c-9.8-2.2-18.9-4.3-28.3-6.5
		C538.5,98.6,538.2,101.1,537.8,103.9z"/>
	<path d="M1275.1,77c3.2-0.9,6-1.7,9-2.5c-3-9.7-8.6-17.1-17.4-22.9c-1.9,2.5-3.7,4.7-5.7,7.2C1268.1,63.5,1272.5,69.6,1275.1,77z"
		/>
	<path d="M1153.4,105.5c0.8,9.3,1.5,18.1,2.2,27.3c4.1-0.9,7-1.7,9.4-2.2c-0.7-8.5-1.2-16.5-1.9-24.7
		C1160.4,105.8,1157.6,105.7,1153.4,105.5z"/>
	<path d="M1282.6,102.6c-3.2-0.9-6.1-1.6-8.4-2.3c-4.1,7.7-8.1,15.2-12.1,22.6c2.4,1.3,4.9,2.7,7.7,4.2
		C1275,119.4,1279.6,111.4,1282.6,102.6z"/>
	<path d="M1186.3,62.9c-1.4-1.5-3-3.6-5.1-6c-8.4,6.1-14.5,13.2-19.1,22c2.9,1.2,5.6,2.3,7.6,3.2
		C1175.3,75.7,1180.7,69.3,1186.3,62.9z"/>
	<path d="M1223.8,160.1c1.8,2.1,3.5,4.1,5.8,6.8c7.6-6.2,14.7-12.1,21.9-18c-2.7-2.4-4.7-4.2-6.8-5.9
		C1237.7,148.8,1230.7,154.4,1223.8,160.1z"/>
	<path d="M1185.6,178.5c2.2-2.2,4.1-4.4,5.8-6.1c-5.7-6.4-11.2-12.5-16.8-18.8c-2.4,1.3-4.9,2.6-7.7,4.1
		C1172,165.9,1177.9,172.7,1185.6,178.5z"/>
	<path d="M1322.7,188.9c0.6,2.8,1.1,5.3,1.8,8.5c9.6-2.3,18.7-4.5,27.9-6.7c-0.9-3.2-1.7-5.7-2.4-8.3
		C1340.6,184.6,1331.7,186.7,1322.7,188.9z"/>
	<path d="M1267.3,194.6c-0.1,2.9-0.2,5.6-0.3,8.8c9.8-0.6,19.2-1,28.9-1.6c-0.3-3.3-0.6-6.1-0.9-8.7
		C1285.6,193.7,1276.5,194.1,1267.3,194.6z"/>
	<path d="M1237.3,50c0.3-2.3,0.7-5,1.1-7.9c-10.2-1.1-19.9,0-29.9,2.3c0.7,2.8,1.5,5.6,2.1,7.7C1219.7,51.4,1228.3,50.7,1237.3,50z"
		/>
	<path d="M1209.8,193.5c9.6,2.6,18.7,5.2,28.1,7.7c0.8-3.5,1.4-6.1,2-8.6c-8.7-2.5-17.3-4.8-26-7.2
		C1212.7,187.8,1211.4,190.3,1209.8,193.5z"/>
	<path d="M1176.3,188.7c1.7,2.6,3.1,4.8,4.8,7.4c8.2-4.7,16.2-9.2,24.5-13.9c-1.8-2.6-3.5-4.9-5.1-7.2
		C1192.2,179.6,1184.5,184.1,1176.3,188.7z"/>
	<path d="M1127.5,217.1c2,2.5,3.7,4.7,5.5,7c7.9-4.9,15.6-9.6,23.6-14.6c-1.8-2.5-3.2-4.7-5-7.3
		C1143.5,207.2,1135.7,212.1,1127.5,217.1z"/>
	<path d="M108.7,29.6c8.3,4,16.6,7.9,25.1,11.8c1.5-2.5,3-4.9,4.7-7.7c-8.4-4-16.8-7.9-25.3-11.9C111.7,24.5,110.3,27,108.7,29.6z"
		/>
	<path d="M57.2,9.4c8.8,3.1,17.3,6.2,26.1,9.4c1.3-2.5,2.5-5,4-7.9c-9-3.3-17.7-6.4-26.8-9.7C59.2,4.2,58.2,6.7,57.2,9.4z"/>
	<path d="M210.8,75.3c9.3,2.9,18.3,5.5,27.6,8.2c1-3.1,1.8-5.6,2.6-8.4c-8.9-2.6-17.6-5.2-26.6-7.9
		C213.2,69.8,212.2,72.3,210.8,75.3z"/>
	<path d="M158.9,53.4c8.5,4,16.9,7.7,25.6,11.7c1.4-2.7,2.7-5.1,4.3-7.9c-8.5-3.8-16.7-7.6-25.2-11.4
		C162,48.2,160.6,50.6,158.9,53.4z"/>
	<path d="M1747.2,117c1.4,2.3,2.6,4.7,4.3,7.5c8.2-5.2,16.3-10.2,24.6-15.5c-2.2-2.7-3.7-4.8-5.4-6.8
		C1762.8,107.2,1755.1,112,1747.2,117z"/>
	<path d="M1840.8,17.8c-4.7,7.9-9.3,15.7-14,23.6c2.6,1.4,4.9,2.7,8,4.2c4.9-8.3,9.6-16.2,14.3-24.4
		C1846,19.9,1843.4,18.9,1840.8,17.8z"/>
	<path d="M1695.5,140c0.9,2.7,1.6,5.2,2.6,8.2c9.3-3.7,17.9-7.2,26.8-10.8c-1.2-3.1-2.2-5.4-3.2-8
		C1712.7,133.1,1704.2,136.5,1695.5,140z"/>
	<path d="M1641.5,153.9c0.2,2.9,0.4,5.6,0.6,8.8c9.6-2.1,18.9-3.9,28.3-5.8c-0.6-3.3-1.2-6-1.7-8.5
		C1659.4,150.2,1650.5,152.1,1641.5,153.9z"/>
	<path d="M1792,84.3c2.1,1.9,4.1,3.7,6.5,5.8c6.7-7.5,13-14.3,19.5-21.4c-2.9-1.9-5-3.3-7.3-4.9C1804.4,70.8,1798.3,77.4,1792,84.3z
		"/>
	<path d="M1535.2,165.9c0.7,3,1.3,5.8,2,8.8c9.2-1.2,18.3-2.3,27.4-3.4c-0.8-3.2-1.5-6-2.2-8.9
		C1553.1,163.6,1544.2,164.7,1535.2,165.9z"/>
	<path d="M1480.5,168.9c0.2,2.9,0.4,5.6,0.7,9c9.5-0.3,18.7-0.5,28.2-0.8c-0.6-3.3-1.1-6.1-1.5-8.9
		C1498.7,168.4,1489.7,168.7,1480.5,168.9z"/>
	<path d="M1589.5,158.9c0.8,3.2,1.5,6,2.1,8.8c9.1-1,18.1-2.1,27.2-3c-0.6-3.1-1.1-5.9-1.7-8.9
		C1607.7,156.8,1598.7,157.8,1589.5,158.9z"/>
	<path d="M884,310.4c-0.1,2.6,0,5.2-0.1,8.7c9.8-0.7,19.4-1.5,29-2.2c-0.4-3.2-0.9-5.9-1.2-8.5C902.3,309,893.3,309.8,884,310.4z"/>
	<path d="M801.8,295c0.1-0.3,0.2-0.6,0.3-0.8c-8.9-3.3-17.4-6.7-26.4-10.1c-1.1,2.8-2.1,5.1-3.2,8.1c0,0,0,0,0,0
		c0,0.1-0.1,0.1-0.1,0.2c8.8,3.7,17.4,7.3,26.3,11c0.2-0.3,0.3-0.7,0.5-1c0.1,0,0.2,0.1,0.3,0.1c0.2-0.8,0.5-1.5,0.7-2.2
		c0.8-1.7,1.5-3.3,2.3-5C802.2,295.1,802,295,801.8,295z"/>
	<path d="M939.5,303.1c0.7,2.6,1.4,5.1,2.3,8.3c9.2-2.4,18.2-4.8,27.8-7.3c-1.1-3.1-2-5.5-3-8.1
		C957.6,298.3,948.8,300.7,939.5,303.1z"/>
	<path d="M993,286.7c1.1,2.4,2.4,4.8,3.9,7.9c8.7-4.1,17.1-8.1,26-12.2c-1.8-2.7-3.3-5-4.9-7.4C1009.6,278.8,1001.5,282.6,993,286.7
		z"/>
	<path d="M826,311.9c9.5,1.8,18.6,3.6,28.5,5.5c0.6-3.2,1.1-5.8,1.6-8.6c-9.2-1.8-18.1-3.4-27.4-5.3
		C827.9,306.3,827.1,308.7,826,311.9z"/>
	<path d="M1377,179.5c0.7,3,1.3,5.8,2,8.8c9.2-1.2,18.3-2.3,27.4-3.4c-0.8-3.2-1.5-6-2.2-8.9C1395,177.2,1386,178.3,1377,179.5z"/>
	<path d="M1431.4,172.6c0.8,3.2,1.5,6,2.1,8.8c9.1-1,18.1-2.1,27.2-3c-0.6-3.1-1.1-5.9-1.7-8.9
		C1449.6,170.5,1440.6,171.5,1431.4,172.6z"/>
	<path d="M1084.7,255.4c1.9,2.4,3.5,4.8,5.4,7.3c8-4.8,15.8-9.4,23.7-14.2c-2.1-2.6-3.8-4.9-5.6-7.2
		C1100.2,246,1092.5,250.7,1084.7,255.4z"/>
	<path d="M1042.7,279.4c1.9,2.4,3.5,4.8,5.4,7.3c8-4.8,15.8-9.4,23.7-14.2c-2.1-2.6-3.8-4.9-5.6-7.2
		C1058.2,270,1050.5,274.7,1042.7,279.4z"/>
</g>
</svg>
