<svg width="235" height="215" viewBox="0 0 235 215" fill="none" xmlns="http://www.w3.org/2000/svg">
<g clip-path="url(#clip0_0_13)">
<path d="M27.8951 128.668C51.0285 130.074 74.6248 121.15 96.4557 114.595C109.874 110.565 123.5 105.495 136.582 100.453C147.672 96.1794 159.132 90.7937 168.995 84.1276C177.075 78.6662 186.695 72.3759 191.162 63.3571C193.313 59.0143 194.21 52.3026 190.433 48.5463C187.087 45.2171 180.91 45.5292 176.74 46.7439C164.398 50.3393 152.738 55.6595 141.003 60.8211C123.094 68.6982 106.259 79.8911 92.6922 94.0002C83.007 104.072 73.3222 117.628 79.1413 131.96C83.0086 141.486 96.9338 142.931 105.658 143.494C108.349 143.667 115.008 143.029 115.008 143.029L123.522 142.121" stroke="#262626" stroke-width="3" stroke-linecap="round" stroke-linejoin="round"/>
<path d="M115.921 135.468C118.668 137.574 121.386 139.825 124.353 141.608C125.741 142.443 123.205 143.854 122.609 144.583C121.82 145.549 116.524 150.927 117.537 149.908" stroke="#262626" stroke-width="3" stroke-linecap="round" stroke-linejoin="round"/>
</g>
<defs>
<clipPath id="clip0_0_13">
<rect width="197.481" height="126" fill="white" transform="translate(0 110.414) rotate(-33.9939)"/>
</clipPath>
</defs>
</svg>
