<svg width="230" height="189" viewBox="0 0 230 189" fill="none" xmlns="http://www.w3.org/2000/svg">
<g clip-path="url(#clip0_0_44)">
<path d="M23.1384 95.2456C45.3803 101.759 70.37 98.3051 93.1121 96.7673C107.09 95.8221 121.502 93.9081 135.378 91.9013C147.141 90.2002 159.512 87.4973 170.61 83.1908C179.702 79.6627 190.48 75.6686 196.839 67.8686C199.902 64.1129 202.269 57.7686 199.422 53.2666C196.9 49.2767 190.808 48.2078 186.472 48.4649C173.64 49.2263 161.089 51.8208 148.5 54.2441C129.288 57.9424 110.386 65.1122 94.0216 75.8517C82.3394 83.5185 69.8832 94.5811 72.37 109.849C74.0226 119.996 87.2781 124.501 95.6591 126.989C98.2438 127.757 104.878 128.614 104.878 128.614L113.381 129.622" stroke="#F8F4F1" stroke-width="3" stroke-linecap="round" stroke-linejoin="round"/>
<path d="M107.449 121.446C109.659 124.11 111.808 126.909 114.305 129.308C115.473 130.429 112.686 131.242 111.943 131.82C110.96 132.586 104.601 136.652 105.814 135.884" stroke="#F8F4F1" stroke-width="3" stroke-linecap="round" stroke-linejoin="round"/>
</g>
<defs>
<clipPath id="clip0_0_44">
<rect width="197.481" height="126" fill="white" transform="translate(0 71.2461) rotate(-21.1478)"/>
</clipPath>
</defs>
</svg>
