<svg viewBox="0 0 96 24" fill="currentColor" xmlns="http://www.w3.org/2000/svg"><path d="M44.1441 13.3941C44.1441 16.6587 41.9207 19.3381 38.2658 19.3381C34.6109 19.3381 32.418 16.6895 32.418 13.3941C32.418 10.0988 34.6718 7.4502 38.2354 7.4502C41.7989 7.4502 44.1441 10.1296 44.1441 13.3941ZM35.2201 13.3941C35.2201 15.1188 36.2556 16.7511 38.2658 16.7511C40.276 16.7511 41.3116 15.1496 41.3116 13.3941C41.3116 11.6387 40.1237 10.0372 38.2658 10.0372C36.2556 10.0064 35.2201 11.6695 35.2201 13.3941Z" fill="currentColor"/><path d="M47.3592 7.66555L47.5724 8.98985C48.4557 7.57316 49.6131 7.38837 50.74 7.38837C51.806 7.35758 52.8416 7.75795 53.6335 8.46629L52.3847 10.8993C51.8365 10.4065 51.1055 10.1294 50.3745 10.1602C48.9126 10.1602 47.5724 10.9609 47.5724 13.0551V19.0607H44.8008V7.66555H47.3592Z" fill="currentColor"/><path d="M57.4713 2.92285V9.23637C58.1414 8.06606 59.9689 7.4193 61.1567 7.4193C64.4461 7.4193 66.8827 9.45195 66.8827 13.3941C66.8827 17.1206 64.3852 19.3688 61.0958 19.3688C59.7252 19.3688 58.3242 18.9068 57.4713 17.5517L57.2886 19.1224H54.6997V2.98445H57.4713V2.92285ZM57.6541 13.3633C57.5932 15.1495 58.9638 16.6278 60.7303 16.7202C60.7912 16.7202 60.8521 16.7202 60.913 16.7202C62.71 16.7202 64.1111 15.3651 64.1111 13.3633C64.1111 11.2998 62.71 10.0371 60.913 10.0371C59.1465 10.0063 57.6845 11.423 57.6541 13.2401C57.6541 13.2709 57.6541 13.3325 57.6541 13.3633Z" fill="currentColor"/><path d="M71.9994 4.46224C71.9994 6.64887 68.71 6.64887 68.71 4.46224C68.71 2.27561 71.9994 2.27561 71.9994 4.46224ZM68.9536 7.63439V19.0603H71.7253V7.63439H68.9536Z" fill="currentColor"/><path d="M81.6239 10.7144C80.8625 10.006 79.8574 9.63645 78.8523 9.69805C77.5122 9.69805 76.7812 10.1292 76.7812 10.8376C76.7812 11.5459 77.4512 12.0079 78.8827 12.0695C81.0148 12.1927 83.695 12.6854 83.695 15.7344C83.695 17.7362 82.0808 19.4609 78.8523 19.4609C77.0553 19.4609 75.2887 19.1529 73.644 17.4283L75.0146 15.4264C75.8065 16.3195 77.634 16.9971 78.9132 17.0279C79.9792 17.0587 80.9539 16.5043 80.9539 15.6728C80.9539 14.872 80.3142 14.5641 78.7 14.4717C76.568 14.3177 74.04 13.517 74.04 10.93C74.04 8.34295 76.7507 7.35742 78.7914 7.35742C80.5579 7.35742 81.8676 7.69619 83.1772 8.8665L81.6239 10.7144Z" fill="currentColor"/><path d="M88.2031 2.92285V12.2545L92.0103 7.66569H95.3606V7.81968L90.7615 13.0245L96.0002 18.8452V19.0608H92.6499L88.2336 13.9176V19.0608H85.4619V2.92285H88.2031Z" fill="currentColor"/><path d="M12.1639 12.2547V21.9252C12.1639 22.1716 12.1334 22.3872 12.1029 22.6335C11.9507 23.2495 11.4329 23.5575 10.7019 23.4651C9.20948 23.3111 7.77798 22.7875 6.49876 21.9868C3.33118 19.9849 1.50374 17.1516 1.07733 13.4866C0.46818 8.49742 3.51393 3.44661 8.23484 1.62955C8.96582 1.35237 9.72726 1.16759 10.4887 1.0444C11.5547 0.828812 12.1943 1.41397 12.1943 2.46109L12.1639 12.2547ZM9.81863 14.0102C7.96073 11.7928 5.46321 10.9612 2.63066 10.8072C2.47837 10.8072 2.41746 10.8688 2.387 10.992C2.35654 11.3924 2.32609 11.7928 2.29563 12.1931C2.26517 12.7167 2.29563 12.7167 2.78295 12.8091C2.87432 12.8399 2.96569 12.8399 3.08752 12.8707C5.21955 13.2403 7.19929 14.195 8.78308 15.6425C9.45314 16.2584 10.0318 16.936 10.5496 17.6751C10.6105 17.7367 10.7019 17.7675 10.7628 17.7059C10.7933 17.6751 10.8237 17.6443 10.8237 17.5827V16.474C10.8237 15.6733 10.5496 14.9033 10.0623 14.2874C10.0014 14.2258 9.91001 14.1026 9.81863 14.0102ZM2.56975 13.9794C2.50883 13.9486 2.47838 13.9794 2.44792 14.041C2.44792 14.0718 2.44792 14.0718 2.44792 14.1026C2.60021 14.6262 2.75249 15.1497 2.90478 15.7041C2.93524 15.8889 3.08752 16.012 3.27027 16.0428C4.36674 16.32 5.4023 16.8128 6.31602 17.4903C7.74752 18.4759 8.84399 19.831 9.54451 21.4016C9.60543 21.494 9.66635 21.5864 9.72726 21.6788C9.97092 21.9252 10.245 22.0792 10.5801 22.1408C10.7019 22.1716 10.8237 22.0792 10.8542 21.956V21.9252C10.8542 21.7096 10.8542 21.4632 10.7933 21.2477C9.84909 18.0139 7.80844 15.7041 4.57994 14.5338C3.94034 14.3182 3.23981 14.1642 2.56975 13.9794ZM10.8542 2.58428C10.8542 2.46109 10.7324 2.3379 10.6105 2.3379H10.5801C8.96582 2.58428 7.44295 3.26182 6.16373 4.33974C4.57994 5.60245 3.42256 7.29632 2.81341 9.23657C2.78295 9.39056 2.84386 9.54454 2.99615 9.57534C3.02661 9.57534 3.02661 9.57534 3.05707 9.57534C3.3921 9.60614 3.69667 9.63694 4.03171 9.66774C4.21445 9.69853 4.27537 9.63694 4.33628 9.48295C4.45811 9.11338 4.64085 8.74381 4.8236 8.37424C5.95053 6.1876 7.71706 4.83251 10.245 4.52453C10.4582 4.49373 10.7628 4.55533 10.8542 4.43214C10.9456 4.30895 10.8846 4.03177 10.9151 3.81618C10.8542 3.38502 10.8542 2.98465 10.8542 2.58428ZM10.5496 5.72564C8.20438 5.84883 6.34648 7.4811 5.58504 9.66774C5.52412 9.82172 5.6155 10.0065 5.76778 10.0681C5.92007 10.1297 6.10282 10.1605 6.25511 10.2221C6.37694 10.3145 6.55968 10.2529 6.6206 10.1297C6.6206 10.0989 6.65105 10.0989 6.65105 10.0681C6.98608 9.42136 7.4734 8.867 8.02164 8.43583C8.78308 7.85067 9.63589 7.45031 10.5801 7.23472C10.6714 7.20393 10.8237 7.11153 10.8237 7.04994V6.00282C10.8237 5.84883 10.7324 5.69484 10.5496 5.69484C10.5801 5.72564 10.5801 5.72564 10.5496 5.72564ZM10.8542 8.86699C10.8542 8.68221 10.7324 8.55902 10.5496 8.55902C10.5496 8.55902 10.5496 8.55902 10.5192 8.55902C10.4887 8.55902 10.4582 8.55902 10.4278 8.55902C10.0318 8.68221 9.63589 8.8362 9.2704 9.05178C8.66125 9.42135 8.14347 9.94491 7.77798 10.5917C7.74752 10.6841 7.74752 10.7765 7.80844 10.838C7.99118 10.9612 8.23484 11.0844 8.41759 11.2076C8.50896 11.2692 8.63079 11.2384 8.72216 11.1768C9.54451 10.4069 9.60543 10.4069 10.6714 10.0065C10.7324 9.97571 10.7628 9.91412 10.7933 9.85252L10.8542 8.86699ZM3.97079 17.7367C4.88452 19.215 6.19419 20.4161 7.74752 21.1861C7.77798 21.2168 7.83889 21.1861 7.86935 21.1553C7.89981 21.1245 7.89981 21.0937 7.86935 21.0629C6.98608 19.523 5.64596 18.3219 4.03171 17.6443C4.00125 17.6443 3.94033 17.6443 3.94033 17.6751C3.97079 17.7059 3.97079 17.7059 3.97079 17.7367ZM9.81863 12.1931L10.6714 13.0555C10.7019 13.0863 10.7628 13.0863 10.8237 13.0555C10.8542 13.0247 10.8542 12.9939 10.8542 12.9939V11.5772C10.8542 11.454 10.7324 11.3616 10.6105 11.3616C10.5801 11.3616 10.5496 11.3616 10.5496 11.3924C10.2755 11.5156 10.0014 11.7004 9.81863 11.9468C9.72726 11.9776 9.72726 12.07 9.81863 12.1931Z" fill="currentColor" stroke="#255653" stroke-width="0.2" stroke-miterlimit="10"/><path d="M13.4737 20.2312V4.12407C13.4737 3.60051 13.4737 3.07695 13.4432 2.58418C13.4432 2.3378 13.4737 2.12222 13.5346 1.87584C13.6869 1.38307 14.1438 1.0443 14.6311 1.0135C14.9966 0.982704 15.3925 1.0135 15.7276 1.1059C17.5855 1.47547 19.3215 2.3378 20.7226 3.6313C22.55 5.23278 23.8293 7.38861 24.3775 9.79083C24.5907 10.7148 24.7125 11.6695 24.6821 12.6242C24.5298 17.4594 21.3622 21.7095 16.824 23.1878C16.2453 23.3726 15.6666 23.4958 15.0575 23.5882C14.7834 23.6498 14.4788 23.619 14.2047 23.4958C13.7783 23.3418 13.4737 22.9414 13.4128 22.4795C13.3823 22.3255 13.3823 22.1407 13.3823 21.9867L13.4737 20.2312ZM15.027 12.2238V21.3399C15.027 21.4631 15.027 21.5863 15.0575 21.6787C15.0575 21.8635 15.2098 21.9867 15.3621 21.9867C15.3925 21.9867 15.3925 21.9867 15.423 21.9867C16.1235 21.8635 16.7936 21.6479 17.4332 21.3399C19.1997 20.5392 20.6921 19.2149 21.7277 17.521C22.7328 15.9504 23.2506 14.1025 23.2201 12.2546C23.2201 11.5463 23.1287 10.8688 22.9764 10.1604C22.5196 8.12776 21.4536 6.3107 19.9307 4.92481C18.8342 3.87769 17.4941 3.13854 16.0321 2.76897C15.7885 2.70738 15.5448 2.64578 15.3011 2.61498C15.1489 2.58419 15.0879 2.64578 15.0575 2.79977C15.0575 2.86136 15.027 2.92296 15.027 2.98455V5.14039V12.2238Z" fill="currentColor"/></svg>